<svg width="21" height="25" viewBox="0 0 21 25" fill="none" xmlns="http://www.w3.org/2000/svg">
<path d="M16.7559 13.1999C16.7559 10.0999 19.3559 8.5999 19.4559 8.4999C17.9559 6.3999 15.7559 6.0999 14.9559 5.9999C13.0559 5.7999 11.1559 7.0999 10.2559 7.0999C9.2559 7.0999 7.7559 5.9999 6.1559 5.9999C4.0559 5.9999 2.1559 7.1999 1.0559 9.0999C-1.1441 12.8999 0.455903 18.4999 2.5559 21.5999C3.6559 23.0999 4.8559 24.7999 6.4559 24.6999C8.0559 24.5999 8.6559 23.6999 10.5559 23.6999C12.4559 23.6999 12.9559 24.6999 14.6559 24.6999C16.3559 24.6999 17.4559 23.1999 18.4559 21.6999C19.6559 19.9999 20.1559 18.2999 20.1559 18.1999C20.0559 18.0999 16.7559 16.8999 16.7559 13.1999Z" fill="#582EFF"/>
<path d="M13.656 4C14.456 2.9 15.056 1.5 14.956 0C13.756 0.1 12.156 0.8 11.356 1.9C10.556 2.8 9.856 4.3 10.056 5.7C11.356 5.8 12.756 5 13.656 4Z" fill="#582EFF"/>
</svg>
