<svg width="21" height="25" viewBox="0 0 21 25" fill="none" xmlns="http://www.w3.org/2000/svg">
<path d="M16.7559 13.1999C16.7559 10.0999 19.3559 8.59992 19.4559 8.49992C17.9559 6.39992 15.7559 6.09992 14.9559 5.99992C13.0559 5.79992 11.1559 7.09992 10.2559 7.09992C9.25593 7.09992 7.75593 5.99992 6.15593 5.99992C4.05593 5.99992 2.15593 7.19992 1.05593 9.09992C-1.14407 12.8999 0.455926 18.4999 2.55593 21.5999C3.65593 23.0999 4.85593 24.7999 6.45593 24.6999C8.05593 24.5999 8.65593 23.6999 10.5559 23.6999C12.4559 23.6999 12.9559 24.6999 14.6559 24.6999C16.3559 24.6999 17.4559 23.1999 18.4559 21.6999C19.6559 19.9999 20.1559 18.2999 20.1559 18.1999C20.0559 18.0999 16.7559 16.8999 16.7559 13.1999Z" fill="#31C5A1"/>
<path d="M13.656 4C14.456 2.9 15.056 1.5 14.956 0C13.756 0.1 12.156 0.8 11.356 1.9C10.556 2.8 9.85601 4.3 10.056 5.7C11.356 5.8 12.756 5 13.656 4Z" fill="#31C5A1"/>
</svg>
