<svg width="47" height="40" viewBox="0 0 47 40" fill="none" xmlns="http://www.w3.org/2000/svg">
<path d="M43.0022 20.7708L33.5905 30.1825L26.3694 37.3631L25.558 38.1338C25.3958 38.2961 25.2335 38.4178 25.0712 38.5395C24.9901 38.5801 24.9089 38.6612 24.9089 38.6612L24.4627 38.9858C21.8663 40.6085 18.3775 40.2434 16.1463 38.0121L1.25782 22.9614C-0.446033 21.217 -0.405465 18.4178 1.33896 16.714L17.2822 1.25758C19.0266 -0.40571 21.7446 -0.40571 23.4485 1.29814L26.5722 4.42188L26.6939 4.54358L35.1321 12.9411L43.0022 20.7708Z" fill="#24C6A1"/>
<path d="M43.0019 20.7708L33.5902 30.1825L26.3691 37.3631L25.5577 38.1338C25.3955 38.2961 25.2332 38.4178 25.0709 38.5395C24.9898 38.5801 24.9086 38.6612 24.9086 38.6612L24.4624 38.9858C24.6652 38.7424 26.6936 36.2677 24.1378 33.0629L14.2393 22.8803C12.5354 21.1359 12.576 18.3367 14.3204 16.6328L26.5719 4.42188L26.6936 4.54358L35.1318 12.9411L43.0019 20.7708Z" fill="#0FA47F"/>
<path d="M44.341 10.426L41.0956 7.09942L35.7406 1.54162C34.0773 -0.202807 31.2782 -0.243375 29.5337 1.41991L27.5865 3.40774L26.5723 4.42194L26.694 4.54364L33.7528 11.5619C34.483 12.2921 34.483 13.5092 33.7528 14.2394L28.8035 19.0264C27.0591 20.7303 27.0185 23.5294 28.7629 25.2739L33.6311 30.1826L43.0023 20.7708L44.3005 19.5132C46.7751 16.998 46.8157 12.9412 44.341 10.426Z" fill="#5718FF"/>
</svg>
